<svg id="图层_1" data-name="图层 1" xmlns="http://www.w3.org/2000/svg" viewBox="0 0 605.01 510.43"><defs><style>.cls-1{fill:none;stroke:#000;stroke-miterlimit:10;}</style></defs><title>1</title><path class="cls-1" d="M784.5,505.5s64-13,115-130c12-28,24-117,24-117s.84-26.23,20-39c9-6,8-8,8-8l-23,4" transform="translate(-362.95 -119.76)"/><path class="cls-1" d="M743.5,378.5s-30-35-4-39,45,30,45,30,43,63-6,136-168,123-168,123-42,10-11-28,40-45,40-45l10-10s-68.18,46.82-77,53c-10,7-35,25-14-18s63-83,63-83v-4s-56.25,30.76-23-14c26-35,30-37,30-37s-9,2-12-2,9-19,9-19" transform="translate(-362.95 -119.76)"/><path class="cls-1" d="M579.5,471.5s-49.47,97.18-88,102c-8,1-17-2-3-51l5-14s-42,44-49,42-14-4,5-36,34-43,34-43-64,53-81,34,32-56,32-56l-1-4s-45,23-63-14l-7-23,2-3s1,26,138-7c57-20,102-12,147-100" transform="translate(-362.95 -119.76)"/><path class="cls-1" d="M598.5,353.5s-77,28-101,6c-13-10-8-25-1-32s4-22-21-18-34-16-26-26,10-11,10-11-28,4-52-2,17-26,17-26l53-22s18-5-11-7-46-4-59-10-21-32,38-32c19,0,19-3,19-3s-55.82-19.25-70-29c-16-11-5-17,33-20s147-8.94,317,97c77,48,82,73,85,77s-4,1-4,1" transform="translate(-362.95 -119.76)"/><path class="cls-1" d="M957.5,214.5l9-5-11-2s-40-14-63-17-38-5-76,45-87,66-87,66" transform="translate(-362.95 -119.76)"/><path class="cls-1" d="M888.5,217.5s4-8,8-8,7,9,7,9,4,7-6,5S888.5,217.5,888.5,217.5Z" transform="translate(-362.95 -119.76)"/><ellipse class="cls-1" cx="534.05" cy="98.74" rx="2.5" ry="2"/></svg>